{
	"asset":{
		"generator":"Khronos glTF Blender I/O v4.1.63",
		"version":"2.0"
	},
	"extensionsUsed":[
		"KHR_materials_emissive_strength"
	],
	"scene":0,
	"scenes":[
		{
			"extras":{
				"prop":1.0
			},
			"name":"Scene",
			"nodes":[
				0,
				1,
				2
			]
		}
	],
	"nodes":[
		{
			"mesh":0,
			"name":"Cube",
			"rotation":[
				0,
				-0.04361938685178757,
				0,
				0.9990482330322266
			],
			"translation":[
				0.22082093358039856,
				5.089569568634033,
				1.053375482559204
			]
		},
		{
			"mesh":1,
			"name":"Torus",
			"translation":[
				2.46657657623291,
				3.461634635925293,
				-4.338596820831299
			]
		},
		{
			"mesh":2,
			"name":"Sphere",
			"translation":[
				-2.7522923946380615,
				2.471797227859497,
				4.757807731628418
			]
		}
	],
	"materials":[
		{
			"doubleSided":true,
			"emissiveFactor":[
				0.2,
				0.8,
				0.35
			],
			"extensions":{
				"KHR_materials_emissive_strength":{
					"emissiveStrength":15
				}
			},
			"name":"Material",
			"pbrMetallicRoughness":{
				"baseColorFactor":[
					0,
					0,
					0,
					1
				]
			}
		},
		{
			"doubleSided":true,
			"emissiveFactor":[
				0.8,
				0.5,
				0.2
			],
			"extensions":{
				"KHR_materials_emissive_strength":{
					"emissiveStrength":15
				}
			},
			"name":"Material.001",
			"pbrMetallicRoughness":{
				"baseColorFactor":[
					243,
					253,
					0,
					1
				]
			}
		},
		{
			"doubleSided":true,
			"emissiveFactor":[
				0.26,
				0.8,
				1
			],
			"extensions":{
				"KHR_materials_emissive_strength":{
					"emissiveStrength":15
				}
			},
			"name":"Material.002",
			"pbrMetallicRoughness":{
				"baseColorFactor":[
					0,
					0,
					0,
					1
				]
			}
		}
	],
	"meshes":[
		{
			"name":"Cube",
			"primitives":[
				{
					"attributes":{
						"POSITION":0,
						"NORMAL":1,
						"TEXCOORD_0":2
					},
					"indices":3,
					"material":0
				}
			]
		},
		{
			"name":"Torus",
			"primitives":[
				{
					"attributes":{
						"POSITION":4,
						"NORMAL":5,
						"TEXCOORD_0":6
					},
					"indices":7,
					"material":1
				}
			]
		},
		{
			"name":"Sphere",
			"primitives":[
				{
					"attributes":{
						"POSITION":8,
						"NORMAL":9,
						"TEXCOORD_0":10
					},
					"indices":11,
					"material":2
				}
			]
		}
	],
	"accessors":[
		{
			"bufferView":0,
			"componentType":5126,
			"count":70,
			"max":[
				1.0942809581756592,
				1.0942809581756592,
				1.0942809581756592
			],
			"min":[
				-1.0942809581756592,
				-1.0942809581756592,
				-1.0942809581756592
			],
			"type":"VEC3"
		},
		{
			"bufferView":1,
			"componentType":5126,
			"count":70,
			"type":"VEC3"
		},
		{
			"bufferView":2,
			"componentType":5126,
			"count":70,
			"type":"VEC2"
		},
		{
			"bufferView":3,
			"componentType":5123,
			"count":432,
			"type":"SCALAR"
		},
		{
			"bufferView":4,
			"componentType":5126,
			"count":624,
			"max":[
				1.25,
				0.25,
				1.25
			],
			"min":[
				-1.25,
				-0.25,
				-1.25
			],
			"type":"VEC3"
		},
		{
			"bufferView":5,
			"componentType":5126,
			"count":624,
			"type":"VEC3"
		},
		{
			"bufferView":6,
			"componentType":5126,
			"count":624,
			"type":"VEC2"
		},
		{
			"bufferView":7,
			"componentType":5123,
			"count":1728,
			"type":"SCALAR"
		},
		{
			"bufferView":8,
			"componentType":5126,
			"count":559,
			"max":[
				1.029056191444397,
				1.0003186464309692,
				1.0077508687973022
			],
			"min":[
				-0.9999990463256836,
				-1,
				-1
			],
			"type":"VEC3"
		},
		{
			"bufferView":9,
			"componentType":5126,
			"count":559,
			"type":"VEC3"
		},
		{
			"bufferView":10,
			"componentType":5126,
			"count":559,
			"type":"VEC2"
		},
		{
			"bufferView":11,
			"componentType":5123,
			"count":1536,
			"type":"SCALAR"
		}
	],
	"bufferViews":[
		{
			"buffer":0,
			"byteLength":840,
			"byteOffset":0,
			"target":34962
		},
		{
			"buffer":0,
			"byteLength":840,
			"byteOffset":840,
			"target":34962
		},
		{
			"buffer":0,
			"byteLength":560,
			"byteOffset":1680,
			"target":34962
		},
		{
			"buffer":0,
			"byteLength":864,
			"byteOffset":2240,
			"target":34963
		},
		{
			"buffer":0,
			"byteLength":7488,
			"byteOffset":3104,
			"target":34962
		},
		{
			"buffer":0,
			"byteLength":7488,
			"byteOffset":10592,
			"target":34962
		},
		{
			"buffer":0,
			"byteLength":4992,
			"byteOffset":18080,
			"target":34962
		},
		{
			"buffer":0,
			"byteLength":3456,
			"byteOffset":23072,
			"target":34963
		},
		{
			"buffer":0,
			"byteLength":6708,
			"byteOffset":26528,
			"target":34962
		},
		{
			"buffer":0,
			"byteLength":6708,
			"byteOffset":33236,
			"target":34962
		},
		{
			"buffer":0,
			"byteLength":4472,
			"byteOffset":39944,
			"target":34962
		},
		{
			"buffer":0,
			"byteLength":3072,
			"byteOffset":44416,
			"target":34963
		}
	],
	"buffers":[
		{
			"byteLength":47488,
			"uri":"data:application/octet-stream;base64,"
		}
	]
}
