<svg width="1920" height="6008" viewBox="0 0 1920 6008" fill="none" xmlns="http://www.w3.org/2000/svg">
<path d="M-52 137.436C1276 -177.442 1860.51 224.675 1847.51 658.133C1819.63 1587.64 1073.5 1223.39 1073.5 1884.79C1083.5 2367.93 2367.51 2481.92 1834.51 2686.91C1447 2835.93 1684.5 3958.44 1270.5 3258.17L648.502 2381.64C566.502 2253.45 314.44 2444.91 336.749 2893.53C359.058 3342.14 344.655 3777.03 554.002 3698.96C824.003 3598.26 1913.51 4184.38 1550 4318.98L764.502 4554.54L74.5004 4904.67C-70.5001 4982.39 -52.5 5169.07 33.5002 5233.17L1513.5 5875.75L1742.51 5970.29C2049.51 6056.82 2017.21 6306 1714.01 6306" stroke="#2BCEE5" stroke-opacity="0.17" stroke-width="50"/>
</svg>
